<?xml version="1.0" encoding="utf-8" standalone="no"?>
<!DOCTYPE svg PUBLIC "-//W3C//DTD SVG 1.1//EN"
  "http://www.w3.org/Graphics/SVG/1.1/DTD/svg11.dtd">
<!-- Created with matplotlib (https://matplotlib.org/) -->
<svg height="481.68pt" version="1.1" viewBox="0 0 983.52 481.68" width="983.52pt" xmlns="http://www.w3.org/2000/svg" xmlns:xlink="http://www.w3.org/1999/xlink">
 <metadata>
  <rdf:RDF xmlns:cc="http://creativecommons.org/ns#" xmlns:dc="http://purl.org/dc/elements/1.1/" xmlns:rdf="http://www.w3.org/1999/02/22-rdf-syntax-ns#">
   <cc:Work>
    <dc:type rdf:resource="http://purl.org/dc/dcmitype/StillImage"/>
    <dc:date>2021-01-11T02:01:46.471247</dc:date>
    <dc:format>image/svg+xml</dc:format>
    <dc:creator>
     <cc:Agent>
      <dc:title>Matplotlib v3.3.2, https://matplotlib.org/</dc:title>
     </cc:Agent>
    </dc:creator>
   </cc:Work>
  </rdf:RDF>
 </metadata>
 <defs>
  <style type="text/css">*{stroke-linecap:butt;stroke-linejoin:round;}</style>
 </defs>
 <g id="figure_1">
  <g id="patch_1">
   <path d="M 0 481.68 
L 983.52 481.68 
L 983.52 0 
L 0 0 
z
" style="fill:#ffffff;"/>
  </g>
  <g id="patch_2">
   <path d="M 261.72 470.88 
L 721.8 470.88 
L 721.8 10.8 
L 261.72 10.8 
z
" style="fill:#ffffff;"/>
  </g>
  <g id="pane3d_1">
   <g id="patch_3">
    <path d="M 320.449793 391.737946 
L 395.331456 192.501221 
L 389.017936 34.850908 
L 308.567818 233.52416 
" style="fill:#f2f2f2;opacity:0.5;stroke:#f2f2f2;stroke-linejoin:miter;"/>
   </g>
  </g>
  <g id="pane3d_2">
   <g id="patch_4">
    <path d="M 395.331456 192.501221 
L 664.88574 235.590743 
L 675.346873 77.64723 
L 389.017936 34.850908 
" style="fill:#e6e6e6;opacity:0.5;stroke:#e6e6e6;stroke-linejoin:miter;"/>
   </g>
  </g>
  <g id="pane3d_3">
   <g id="patch_5">
    <path d="M 320.449793 391.737946 
L 611.257903 442.317294 
L 664.88574 235.590743 
L 395.331456 192.501221 
" style="fill:#ececec;opacity:0.5;stroke:#ececec;stroke-linejoin:miter;"/>
   </g>
  </g>
  <g id="axis3d_1">
   <g id="line2d_1">
    <path d="M 320.449793 391.737946 
L 611.257903 442.317294 
" style="fill:none;stroke:#000000;stroke-linecap:square;stroke-width:0.8;"/>
   </g>
   <g id="text_1">
    <!-- X -->
    <g transform="translate(453.954649 458.016623)scale(0.1 -0.1)">
     <defs>
      <path d="M 6.296875 72.90625 
L 16.890625 72.90625 
L 35.015625 45.796875 
L 53.21875 72.90625 
L 63.8125 72.90625 
L 40.375 37.890625 
L 65.375 0 
L 54.78125 0 
L 34.28125 31 
L 13.625 0 
L 2.984375 0 
L 29 38.921875 
z
" id="DejaVuSans-88"/>
     </defs>
     <use xlink:href="#DejaVuSans-88"/>
    </g>
   </g>
   <g id="Line3DCollection_1">
    <path d="M 326.875711 392.855586 
L 401.296347 193.454737 
L 395.347218 35.796918 
" style="fill:none;stroke:#b0b0b0;stroke-width:0.8;"/>
    <path d="M 357.463216 398.175575 
L 429.684009 197.992638 
L 425.473282 40.299728 
" style="fill:none;stroke:#b0b0b0;stroke-width:0.8;"/>
    <path d="M 388.175596 403.517283 
L 458.178682 202.547646 
L 455.719927 44.82056 
" style="fill:none;stroke:#b0b0b0;stroke-width:0.8;"/>
    <path d="M 419.013615 408.880844 
L 486.780971 207.119857 
L 486.087876 49.359523 
" style="fill:none;stroke:#b0b0b0;stroke-width:0.8;"/>
    <path d="M 449.978046 414.266391 
L 515.491489 211.709368 
L 516.577862 53.916727 
" style="fill:none;stroke:#b0b0b0;stroke-width:0.8;"/>
    <path d="M 481.069669 419.67406 
L 544.310849 216.316279 
L 547.190621 58.492281 
" style="fill:none;stroke:#b0b0b0;stroke-width:0.8;"/>
    <path d="M 512.289269 425.103988 
L 573.239673 220.940687 
L 577.926897 63.086296 
" style="fill:none;stroke:#b0b0b0;stroke-width:0.8;"/>
    <path d="M 543.637637 430.556312 
L 602.278584 225.582694 
L 608.787438 67.698885 
" style="fill:none;stroke:#b0b0b0;stroke-width:0.8;"/>
    <path d="M 575.115571 436.031171 
L 631.428214 230.2424 
L 639.773 72.33016 
" style="fill:none;stroke:#b0b0b0;stroke-width:0.8;"/>
   </g>
   <g id="xtick_1">
    <g id="line2d_2">
     <path d="M 327.519866 391.129652 
L 325.584842 396.314309 
" style="fill:none;stroke:#000000;stroke-linecap:square;stroke-width:0.8;"/>
    </g>
    <g id="text_2">
     <!-- −10.0 -->
     <g transform="translate(308.198375 417.947685)scale(0.1 -0.1)">
      <defs>
       <path d="M 10.59375 35.5 
L 73.1875 35.5 
L 73.1875 27.203125 
L 10.59375 27.203125 
z
" id="DejaVuSans-8722"/>
       <path d="M 12.40625 8.296875 
L 28.515625 8.296875 
L 28.515625 63.921875 
L 10.984375 60.40625 
L 10.984375 69.390625 
L 28.421875 72.90625 
L 38.28125 72.90625 
L 38.28125 8.296875 
L 54.390625 8.296875 
L 54.390625 0 
L 12.40625 0 
z
" id="DejaVuSans-49"/>
       <path d="M 31.78125 66.40625 
Q 24.171875 66.40625 20.328125 58.90625 
Q 16.5 51.421875 16.5 36.375 
Q 16.5 21.390625 20.328125 13.890625 
Q 24.171875 6.390625 31.78125 6.390625 
Q 39.453125 6.390625 43.28125 13.890625 
Q 47.125 21.390625 47.125 36.375 
Q 47.125 51.421875 43.28125 58.90625 
Q 39.453125 66.40625 31.78125 66.40625 
z
M 31.78125 74.21875 
Q 44.046875 74.21875 50.515625 64.515625 
Q 56.984375 54.828125 56.984375 36.375 
Q 56.984375 17.96875 50.515625 8.265625 
Q 44.046875 -1.421875 31.78125 -1.421875 
Q 19.53125 -1.421875 13.0625 8.265625 
Q 6.59375 17.96875 6.59375 36.375 
Q 6.59375 54.828125 13.0625 64.515625 
Q 19.53125 74.21875 31.78125 74.21875 
z
" id="DejaVuSans-48"/>
       <path d="M 10.6875 12.40625 
L 21 12.40625 
L 21 0 
L 10.6875 0 
z
" id="DejaVuSans-46"/>
      </defs>
      <use xlink:href="#DejaVuSans-8722"/>
      <use x="83.789062" xlink:href="#DejaVuSans-49"/>
      <use x="147.412109" xlink:href="#DejaVuSans-48"/>
      <use x="211.035156" xlink:href="#DejaVuSans-46"/>
      <use x="242.822266" xlink:href="#DejaVuSans-48"/>
     </g>
    </g>
   </g>
   <g id="xtick_2">
    <g id="line2d_3">
     <path d="M 358.088427 396.442605 
L 356.210307 401.648414 
" style="fill:none;stroke:#000000;stroke-linecap:square;stroke-width:0.8;"/>
    </g>
    <g id="text_3">
     <!-- −7.5 -->
     <g transform="translate(341.9896 423.308442)scale(0.1 -0.1)">
      <defs>
       <path d="M 8.203125 72.90625 
L 55.078125 72.90625 
L 55.078125 68.703125 
L 28.609375 0 
L 18.3125 0 
L 43.21875 64.59375 
L 8.203125 64.59375 
z
" id="DejaVuSans-55"/>
       <path d="M 10.796875 72.90625 
L 49.515625 72.90625 
L 49.515625 64.59375 
L 19.828125 64.59375 
L 19.828125 46.734375 
Q 21.96875 47.46875 24.109375 47.828125 
Q 26.265625 48.1875 28.421875 48.1875 
Q 40.625 48.1875 47.75 41.5 
Q 54.890625 34.8125 54.890625 23.390625 
Q 54.890625 11.625 47.5625 5.09375 
Q 40.234375 -1.421875 26.90625 -1.421875 
Q 22.3125 -1.421875 17.546875 -0.640625 
Q 12.796875 0.140625 7.71875 1.703125 
L 7.71875 11.625 
Q 12.109375 9.234375 16.796875 8.0625 
Q 21.484375 6.890625 26.703125 6.890625 
Q 35.15625 6.890625 40.078125 11.328125 
Q 45.015625 15.765625 45.015625 23.390625 
Q 45.015625 31 40.078125 35.4375 
Q 35.15625 39.890625 26.703125 39.890625 
Q 22.75 39.890625 18.8125 39.015625 
Q 14.890625 38.140625 10.796875 36.28125 
z
" id="DejaVuSans-53"/>
      </defs>
      <use xlink:href="#DejaVuSans-8722"/>
      <use x="83.789062" xlink:href="#DejaVuSans-55"/>
      <use x="147.412109" xlink:href="#DejaVuSans-46"/>
      <use x="179.199219" xlink:href="#DejaVuSans-53"/>
     </g>
    </g>
   </g>
   <g id="xtick_3">
    <g id="line2d_4">
     <path d="M 388.781701 401.777234 
L 386.960966 407.004324 
" style="fill:none;stroke:#000000;stroke-linecap:square;stroke-width:0.8;"/>
    </g>
    <g id="text_4">
     <!-- −5.0 -->
     <g transform="translate(372.724659 428.691106)scale(0.1 -0.1)">
      <use xlink:href="#DejaVuSans-8722"/>
      <use x="83.789062" xlink:href="#DejaVuSans-53"/>
      <use x="147.412109" xlink:href="#DejaVuSans-46"/>
      <use x="179.199219" xlink:href="#DejaVuSans-48"/>
     </g>
    </g>
   </g>
   <g id="xtick_4">
    <g id="line2d_5">
     <path d="M 419.600454 407.133671 
L 417.83759 412.382174 
" style="fill:none;stroke:#000000;stroke-linecap:square;stroke-width:0.8;"/>
    </g>
    <g id="text_5">
     <!-- −2.5 -->
     <g transform="translate(403.585573 434.095811)scale(0.1 -0.1)">
      <defs>
       <path d="M 19.1875 8.296875 
L 53.609375 8.296875 
L 53.609375 0 
L 7.328125 0 
L 7.328125 8.296875 
Q 12.9375 14.109375 22.625 23.890625 
Q 32.328125 33.6875 34.8125 36.53125 
Q 39.546875 41.84375 41.421875 45.53125 
Q 43.3125 49.21875 43.3125 52.78125 
Q 43.3125 58.59375 39.234375 62.25 
Q 35.15625 65.921875 28.609375 65.921875 
Q 23.96875 65.921875 18.8125 64.3125 
Q 13.671875 62.703125 7.8125 59.421875 
L 7.8125 69.390625 
Q 13.765625 71.78125 18.9375 73 
Q 24.125 74.21875 28.421875 74.21875 
Q 39.75 74.21875 46.484375 68.546875 
Q 53.21875 62.890625 53.21875 53.421875 
Q 53.21875 48.921875 51.53125 44.890625 
Q 49.859375 40.875 45.40625 35.40625 
Q 44.1875 33.984375 37.640625 27.21875 
Q 31.109375 20.453125 19.1875 8.296875 
z
" id="DejaVuSans-50"/>
      </defs>
      <use xlink:href="#DejaVuSans-8722"/>
      <use x="83.789062" xlink:href="#DejaVuSans-50"/>
      <use x="147.412109" xlink:href="#DejaVuSans-46"/>
      <use x="179.199219" xlink:href="#DejaVuSans-53"/>
     </g>
    </g>
   </g>
   <g id="xtick_5">
    <g id="line2d_6">
     <path d="M 450.545456 412.512051 
L 448.840954 417.782098 
" style="fill:none;stroke:#000000;stroke-linecap:square;stroke-width:0.8;"/>
    </g>
    <g id="text_6">
     <!-- 0.0 -->
     <g transform="translate(438.762958 439.522692)scale(0.1 -0.1)">
      <use xlink:href="#DejaVuSans-48"/>
      <use x="63.623047" xlink:href="#DejaVuSans-46"/>
      <use x="95.410156" xlink:href="#DejaVuSans-48"/>
     </g>
    </g>
   </g>
   <g id="xtick_6">
    <g id="line2d_7">
     <path d="M 481.617485 417.912509 
L 479.971839 423.204233 
" style="fill:none;stroke:#000000;stroke-linecap:square;stroke-width:0.8;"/>
    </g>
    <g id="text_7">
     <!-- 2.5 -->
     <g transform="translate(469.877909 444.971887)scale(0.1 -0.1)">
      <use xlink:href="#DejaVuSans-50"/>
      <use x="63.623047" xlink:href="#DejaVuSans-46"/>
      <use x="95.410156" xlink:href="#DejaVuSans-53"/>
     </g>
    </g>
   </g>
   <g id="xtick_7">
    <g id="line2d_8">
     <path d="M 512.817324 423.335181 
L 511.231034 428.648716 
" style="fill:none;stroke:#000000;stroke-linecap:square;stroke-width:0.8;"/>
    </g>
    <g id="text_8">
     <!-- 5.0 -->
     <g transform="translate(501.121056 450.443532)scale(0.1 -0.1)">
      <use xlink:href="#DejaVuSans-53"/>
      <use x="63.623047" xlink:href="#DejaVuSans-46"/>
      <use x="95.410156" xlink:href="#DejaVuSans-48"/>
     </g>
    </g>
   </g>
   <g id="xtick_8">
    <g id="line2d_9">
     <path d="M 544.145763 428.780204 
L 542.619335 434.115685 
" style="fill:none;stroke:#000000;stroke-linecap:square;stroke-width:0.8;"/>
    </g>
    <g id="text_9">
     <!-- 7.5 -->
     <g transform="translate(532.493194 455.937769)scale(0.1 -0.1)">
      <use xlink:href="#DejaVuSans-55"/>
      <use x="63.623047" xlink:href="#DejaVuSans-46"/>
      <use x="95.410156" xlink:href="#DejaVuSans-53"/>
     </g>
    </g>
   </g>
   <g id="xtick_9">
    <g id="line2d_10">
     <path d="M 575.603601 434.247717 
L 574.137541 439.605281 
" style="fill:none;stroke:#000000;stroke-linecap:square;stroke-width:0.8;"/>
    </g>
    <g id="text_10">
     <!-- 10.0 -->
     <g transform="translate(560.813873 461.454735)scale(0.1 -0.1)">
      <use xlink:href="#DejaVuSans-49"/>
      <use x="63.623047" xlink:href="#DejaVuSans-48"/>
      <use x="127.246094" xlink:href="#DejaVuSans-46"/>
      <use x="159.033203" xlink:href="#DejaVuSans-48"/>
     </g>
    </g>
   </g>
  </g>
  <g id="axis3d_2">
   <g id="line2d_11">
    <path d="M 664.88574 235.590743 
L 611.257903 442.317294 
" style="fill:none;stroke:#000000;stroke-linecap:square;stroke-width:0.8;"/>
   </g>
   <g id="text_11">
    <!-- Y -->
    <g transform="translate(664.801671 357.89647)scale(0.1 -0.1)">
     <defs>
      <path d="M -0.203125 72.90625 
L 10.40625 72.90625 
L 30.609375 42.921875 
L 50.6875 72.90625 
L 61.28125 72.90625 
L 35.5 34.71875 
L 35.5 0 
L 25.59375 0 
L 25.59375 34.71875 
z
" id="DejaVuSans-89"/>
     </defs>
     <use xlink:href="#DejaVuSans-89"/>
    </g>
   </g>
   <g id="Line3DCollection_2">
    <path d="M 317.004768 212.688935 
L 328.267024 370.938735 
L 616.863766 420.707608 
" style="fill:none;stroke:#b0b0b0;stroke-width:0.8;"/>
    <path d="M 327.054238 187.871559 
L 337.589217 346.135289 
L 623.5466 394.946376 
" style="fill:none;stroke:#b0b0b0;stroke-width:0.8;"/>
    <path d="M 336.900629 163.555689 
L 346.73453 321.802468 
L 630.100243 369.683154 
" style="fill:none;stroke:#b0b0b0;stroke-width:0.8;"/>
    <path d="M 346.550036 139.726276 
L 355.707948 297.927003 
L 636.528405 344.903639 
" style="fill:none;stroke:#b0b0b0;stroke-width:0.8;"/>
    <path d="M 356.008312 116.368867 
L 364.514274 274.496119 
L 642.834656 320.594071 
" style="fill:none;stroke:#b0b0b0;stroke-width:0.8;"/>
    <path d="M 365.281078 93.469575 
L 373.158132 251.497514 
L 649.022432 296.741207 
" style="fill:none;stroke:#b0b0b0;stroke-width:0.8;"/>
    <path d="M 374.373741 71.015054 
L 381.643976 228.919333 
L 655.095039 273.332296 
" style="fill:none;stroke:#b0b0b0;stroke-width:0.8;"/>
    <path d="M 383.291497 48.992469 
L 389.976099 206.750153 
L 661.055665 250.355058 
" style="fill:none;stroke:#b0b0b0;stroke-width:0.8;"/>
   </g>
   <g id="xtick_10">
    <g id="line2d_12">
     <path d="M 614.510983 420.301868 
L 621.571504 421.519464 
" style="fill:none;stroke:#000000;stroke-linecap:square;stroke-width:0.8;"/>
    </g>
    <g id="text_12">
     <!-- −10.0 -->
     <g transform="translate(615.266513 437.827654)scale(0.1 -0.1)">
      <use xlink:href="#DejaVuSans-8722"/>
      <use x="83.789062" xlink:href="#DejaVuSans-49"/>
      <use x="147.412109" xlink:href="#DejaVuSans-48"/>
      <use x="211.035156" xlink:href="#DejaVuSans-46"/>
      <use x="242.822266" xlink:href="#DejaVuSans-48"/>
     </g>
    </g>
   </g>
   <g id="xtick_11">
    <g id="line2d_13">
     <path d="M 621.21576 394.548517 
L 628.21041 395.742459 
" style="fill:none;stroke:#000000;stroke-linecap:square;stroke-width:0.8;"/>
    </g>
    <g id="text_13">
     <!-- −7.5 -->
     <g transform="translate(624.982903 412.027694)scale(0.1 -0.1)">
      <use xlink:href="#DejaVuSans-8722"/>
      <use x="83.789062" xlink:href="#DejaVuSans-55"/>
      <use x="147.412109" xlink:href="#DejaVuSans-46"/>
      <use x="179.199219" xlink:href="#DejaVuSans-53"/>
     </g>
    </g>
   </g>
   <g id="xtick_12">
    <g id="line2d_14">
     <path d="M 627.790941 369.292948 
L 634.720937 370.463919 
" style="fill:none;stroke:#000000;stroke-linecap:square;stroke-width:0.8;"/>
    </g>
    <g id="text_14">
     <!-- −5.0 -->
     <g transform="translate(631.39197 386.725457)scale(0.1 -0.1)">
      <use xlink:href="#DejaVuSans-8722"/>
      <use x="83.789062" xlink:href="#DejaVuSans-53"/>
      <use x="147.412109" xlink:href="#DejaVuSans-46"/>
      <use x="179.199219" xlink:href="#DejaVuSans-48"/>
     </g>
    </g>
   </g>
   <g id="xtick_13">
    <g id="line2d_15">
     <path d="M 634.240247 344.520868 
L 641.10677 345.669524 
" style="fill:none;stroke:#000000;stroke-linecap:square;stroke-width:0.8;"/>
    </g>
    <g id="text_15">
     <!-- −2.5 -->
     <g transform="translate(637.678577 361.906678)scale(0.1 -0.1)">
      <use xlink:href="#DejaVuSans-8722"/>
      <use x="83.789062" xlink:href="#DejaVuSans-50"/>
      <use x="147.412109" xlink:href="#DejaVuSans-46"/>
      <use x="179.199219" xlink:href="#DejaVuSans-53"/>
     </g>
    </g>
   </g>
   <g id="xtick_14">
    <g id="line2d_16">
     <path d="M 640.56726 320.218525 
L 647.37146 321.345498 
" style="fill:none;stroke:#000000;stroke-linecap:square;stroke-width:0.8;"/>
    </g>
    <g id="text_16">
     <!-- 0.0 -->
     <g transform="translate(648.036044 337.557632)scale(0.1 -0.1)">
      <use xlink:href="#DejaVuSans-48"/>
      <use x="63.623047" xlink:href="#DejaVuSans-46"/>
      <use x="95.410156" xlink:href="#DejaVuSans-48"/>
     </g>
    </g>
   </g>
   <g id="xtick_15">
    <g id="line2d_17">
     <path d="M 646.775425 296.372682 
L 653.518421 297.478581 
" style="fill:none;stroke:#000000;stroke-linecap:square;stroke-width:0.8;"/>
    </g>
    <g id="text_17">
     <!-- 2.5 -->
     <g transform="translate(654.088031 313.665108)scale(0.1 -0.1)">
      <use xlink:href="#DejaVuSans-50"/>
      <use x="63.623047" xlink:href="#DejaVuSans-46"/>
      <use x="95.410156" xlink:href="#DejaVuSans-53"/>
     </g>
    </g>
   </g>
   <g id="xtick_16">
    <g id="line2d_18">
     <path d="M 652.868059 272.970598 
L 659.55094 274.056008 
" style="fill:none;stroke:#000000;stroke-linecap:square;stroke-width:0.8;"/>
    </g>
    <g id="text_18">
     <!-- 5.0 -->
     <g transform="translate(660.027601 290.216386)scale(0.1 -0.1)">
      <use xlink:href="#DejaVuSans-53"/>
      <use x="63.623047" xlink:href="#DejaVuSans-46"/>
      <use x="95.410156" xlink:href="#DejaVuSans-48"/>
     </g>
    </g>
   </g>
   <g id="xtick_17">
    <g id="line2d_19">
     <path d="M 658.848358 249.999998 
L 665.472184 251.065484 
" style="fill:none;stroke:#000000;stroke-linecap:square;stroke-width:0.8;"/>
    </g>
    <g id="text_19">
     <!-- 7.5 -->
     <g transform="translate(665.85786 267.199215)scale(0.1 -0.1)">
      <use xlink:href="#DejaVuSans-55"/>
      <use x="63.623047" xlink:href="#DejaVuSans-46"/>
      <use x="95.410156" xlink:href="#DejaVuSans-53"/>
     </g>
    </g>
   </g>
  </g>
  <g id="axis3d_3">
   <g id="line2d_20">
    <path d="M 664.88574 235.590743 
L 675.346873 77.64723 
" style="fill:none;stroke:#000000;stroke-linecap:square;stroke-width:0.8;"/>
   </g>
   <g id="Line3DCollection_3">
    <path d="M 665.082856 232.61467 
L 395.212365 189.527466 
L 320.226781 388.768445 
" style="fill:none;stroke:#b0b0b0;stroke-width:0.8;"/>
    <path d="M 666.154811 216.43015 
L 394.564804 173.357707 
L 319.013408 372.611847 
" style="fill:none;stroke:#b0b0b0;stroke-width:0.8;"/>
    <path d="M 667.240608 200.036646 
L 393.909031 156.982872 
L 317.783356 356.233155 
" style="fill:none;stroke:#b0b0b0;stroke-width:0.8;"/>
    <path d="M 668.340517 183.430086 
L 393.244888 140.399036 
L 316.536278 339.627758 
" style="fill:none;stroke:#b0b0b0;stroke-width:0.8;"/>
    <path d="M 669.454814 166.606288 
L 392.572213 123.60217 
L 315.271819 322.790914 
" style="fill:none;stroke:#b0b0b0;stroke-width:0.8;"/>
    <path d="M 670.583784 149.560962 
L 391.890842 106.588145 
L 313.989611 305.717753 
" style="fill:none;stroke:#b0b0b0;stroke-width:0.8;"/>
    <path d="M 671.727717 132.289703 
L 391.200604 89.35272 
L 312.68928 288.403263 
" style="fill:none;stroke:#b0b0b0;stroke-width:0.8;"/>
    <path d="M 672.886915 114.787989 
L 390.501326 71.891546 
L 311.370438 270.84229 
" style="fill:none;stroke:#b0b0b0;stroke-width:0.8;"/>
    <path d="M 674.061684 97.051177 
L 389.792828 54.200159 
L 310.032686 253.029535 
" style="fill:none;stroke:#b0b0b0;stroke-width:0.8;"/>
   </g>
   <g id="xtick_18">
    <g id="line2d_21">
     <path d="M 662.885579 232.263856 
L 669.479297 233.316601 
" style="fill:none;stroke:#000000;stroke-linecap:square;stroke-width:0.8;"/>
    </g>
    <g id="text_20">
     <!-- 0.0 -->
     <g transform="translate(672.645773 233.188019)scale(0.1 -0.1)">
      <use xlink:href="#DejaVuSans-48"/>
      <use x="63.623047" xlink:href="#DejaVuSans-46"/>
      <use x="95.410156" xlink:href="#DejaVuSans-48"/>
     </g>
    </g>
   </g>
   <g id="xtick_19">
    <g id="line2d_22">
     <path d="M 663.943287 216.079416 
L 670.579772 217.13192 
" style="fill:none;stroke:#000000;stroke-linecap:square;stroke-width:0.8;"/>
    </g>
    <g id="text_21">
     <!-- 2.5 -->
     <g transform="translate(673.813873 217.005243)scale(0.1 -0.1)">
      <use xlink:href="#DejaVuSans-50"/>
      <use x="63.623047" xlink:href="#DejaVuSans-46"/>
      <use x="95.410156" xlink:href="#DejaVuSans-53"/>
     </g>
    </g>
   </g>
   <g id="xtick_20">
    <g id="line2d_23">
     <path d="M 665.014651 199.686025 
L 671.694461 200.738194 
" style="fill:none;stroke:#000000;stroke-linecap:square;stroke-width:0.8;"/>
    </g>
    <g id="text_22">
     <!-- 5.0 -->
     <g transform="translate(674.997012 200.614112)scale(0.1 -0.1)">
      <use xlink:href="#DejaVuSans-53"/>
      <use x="63.623047" xlink:href="#DejaVuSans-46"/>
      <use x="95.410156" xlink:href="#DejaVuSans-48"/>
     </g>
    </g>
   </g>
   <g id="xtick_21">
    <g id="line2d_24">
     <path d="M 666.099936 183.079609 
L 672.823641 184.131346 
" style="fill:none;stroke:#000000;stroke-linecap:square;stroke-width:0.8;"/>
    </g>
    <g id="text_23">
     <!-- 7.5 -->
     <g transform="translate(676.195482 184.010578)scale(0.1 -0.1)">
      <use xlink:href="#DejaVuSans-55"/>
      <use x="63.623047" xlink:href="#DejaVuSans-46"/>
      <use x="95.410156" xlink:href="#DejaVuSans-53"/>
     </g>
    </g>
   </g>
   <g id="xtick_22">
    <g id="line2d_25">
     <path d="M 667.199416 166.25599 
L 673.967597 167.307192 
" style="fill:none;stroke:#000000;stroke-linecap:square;stroke-width:0.8;"/>
    </g>
    <g id="text_24">
     <!-- 10.0 -->
     <g transform="translate(674.228334 167.190485)scale(0.1 -0.1)">
      <use xlink:href="#DejaVuSans-49"/>
      <use x="63.623047" xlink:href="#DejaVuSans-48"/>
      <use x="127.246094" xlink:href="#DejaVuSans-46"/>
      <use x="159.033203" xlink:href="#DejaVuSans-48"/>
     </g>
    </g>
   </g>
   <g id="xtick_23">
    <g id="line2d_26">
     <path d="M 668.313372 149.210878 
L 675.126621 150.26144 
" style="fill:none;stroke:#000000;stroke-linecap:square;stroke-width:0.8;"/>
    </g>
    <g id="text_25">
     <!-- 12.5 -->
     <g transform="translate(675.458376 150.149568)scale(0.1 -0.1)">
      <use xlink:href="#DejaVuSans-49"/>
      <use x="63.623047" xlink:href="#DejaVuSans-50"/>
      <use x="127.246094" xlink:href="#DejaVuSans-46"/>
      <use x="159.033203" xlink:href="#DejaVuSans-53"/>
     </g>
    </g>
   </g>
   <g id="xtick_24">
    <g id="line2d_27">
     <path d="M 669.442091 131.939869 
L 676.301011 132.989683 
" style="fill:none;stroke:#000000;stroke-linecap:square;stroke-width:0.8;"/>
    </g>
    <g id="text_26">
     <!-- 15.0 -->
     <g transform="translate(676.704673 132.883449)scale(0.1 -0.1)">
      <use xlink:href="#DejaVuSans-49"/>
      <use x="63.623047" xlink:href="#DejaVuSans-53"/>
      <use x="127.246094" xlink:href="#DejaVuSans-46"/>
      <use x="159.033203" xlink:href="#DejaVuSans-48"/>
     </g>
    </g>
   </g>
   <g id="xtick_25">
    <g id="line2d_28">
     <path d="M 670.585869 114.438443 
L 677.491077 115.487395 
" style="fill:none;stroke:#000000;stroke-linecap:square;stroke-width:0.8;"/>
    </g>
    <g id="text_27">
     <!-- 17.5 -->
     <g transform="translate(677.96755 115.387636)scale(0.1 -0.1)">
      <use xlink:href="#DejaVuSans-49"/>
      <use x="63.623047" xlink:href="#DejaVuSans-55"/>
      <use x="127.246094" xlink:href="#DejaVuSans-46"/>
      <use x="159.033203" xlink:href="#DejaVuSans-53"/>
     </g>
    </g>
   </g>
   <g id="xtick_26">
    <g id="line2d_29">
     <path d="M 671.745008 96.701959 
L 678.697133 97.74993 
" style="fill:none;stroke:#000000;stroke-linecap:square;stroke-width:0.8;"/>
    </g>
    <g id="text_28">
     <!-- 20.0 -->
     <g transform="translate(679.24734 97.657513)scale(0.1 -0.1)">
      <use xlink:href="#DejaVuSans-50"/>
      <use x="63.623047" xlink:href="#DejaVuSans-48"/>
      <use x="127.246094" xlink:href="#DejaVuSans-46"/>
      <use x="159.033203" xlink:href="#DejaVuSans-48"/>
     </g>
    </g>
   </g>
  </g>
  <g id="axes_1">
   <g id="line2d_30">
    <path clip-path="url(#p18923c721b)" d="M 488.528783 292.062083 
L 488.416719 291.853731 
L 488.176098 291.913765 
L 488.017226 292.154053 
L 488.087474 292.421804 
L 488.365065 292.617618 
L 488.759161 292.630851 
L 489.068842 292.436976 
L 489.169902 292.12987 
L 489.045453 291.823552 
L 488.71862 291.598543 
L 488.263083 291.550542 
L 487.852315 291.720805 
L 487.626087 292.042697 
L 487.628193 292.412045 
L 487.849116 292.753746 
L 488.263549 292.991458 
L 488.792745 293.04401 
L 489.290881 292.876738 
L 489.622947 292.539909 
L 489.733388 292.120175 
L 489.6201 291.694972 
L 489.285187 291.31428 
L 488.773024 291.065146 
L 488.150909 291.007378 
L 487.556244 291.171403 
L 487.106902 291.520278 
L 486.870739 291.972846 
L 486.855459 292.477264 
L 487.061624 292.965104 
L 487.488512 293.394421 
L 488.089905 293.685548 
L 488.813965 293.786998 
L 489.528989 293.664742 
L 490.138357 293.337015 
L 490.556117 292.864112 
L 490.754101 292.314967 
L 490.733386 291.735846 
L 490.492483 291.164931 
L 490.041563 290.658739 
L 489.389212 290.260855 
L 488.602664 290.038543 
L 487.755507 290.026202 
L 486.956812 290.228545 
L 486.280348 290.619119 
L 485.781253 291.155998 
L 485.493101 291.788224 
L 485.427823 292.462082 
L 485.587897 293.151763 
L 485.973742 293.806776 
L 486.568956 294.376401 
L 487.34057 294.813479 
L 488.275637 295.084237 
L 489.281351 295.137486 
L 490.246169 294.967301 
L 491.102268 294.598569 
L 491.798498 294.068588 
L 492.302057 293.42174 
L 492.606381 292.671728 
L 492.685831 291.892423 
L 492.543755 291.093742 
L 492.177942 290.317779 
L 491.598086 289.607226 
L 490.825762 289.003125 
L 489.850254 288.526361 
L 488.749764 288.241063 
L 487.582608 288.172918 
L 486.461573 288.324741 
L 485.398902 288.690844 
L 484.492077 289.232694 
L 483.772519 289.907917 
L 483.234534 290.713577 
L 482.920182 291.574341 
L 482.820104 292.494595 
L 482.947124 293.439369 
L 483.305359 294.371214 
L 483.889662 295.251624 
L 484.685417 296.042568 
L 485.668723 296.708087 
L 486.806976 297.215872 
L 488.059846 297.538775 
L 489.38063 297.656159 
L 490.717945 297.555039 
L 492.017679 297.230935 
L 493.167807 296.72054 
L 494.189157 296.024528 
L 494.999516 295.210971 
L 495.624189 294.269482 
L 496.019291 293.286849 
L 496.206975 292.239873 
L 496.175097 291.157212 
L 495.917575 290.069431 
L 495.434728 289.008165 
L 494.733444 288.005226 
L 493.827157 287.091698 
L 492.735645 286.297027 
L 491.484646 285.648142 
L 490.020906 285.146125 
L 488.45598 284.856878 
L 486.927738 284.794364 
L 485.394203 284.945421 
L 483.89969 285.312889 
L 482.488912 285.893492 
L 481.276918 286.626199 
L 480.212845 287.526366 
L 479.328967 288.576309 
L 478.689615 289.677038 
L 478.254168 290.868511 
L 478.038882 292.126487 
L 478.055546 293.424411 
L 478.286522 294.646859 
L 478.727089 295.855408 
L 479.428606 297.107041 
L 480.358965 298.284536 
L 481.503937 299.358535 
L 482.843855 300.301112 
L 484.353884 301.086489 
L 486.004425 301.691719 
L 487.761667 302.097336 
L 489.588247 302.287934 
L 491.44404 302.252676 
L 493.287028 301.985695 
L 494.957711 301.526835 
L 496.544934 300.869321 
L 498.014591 300.021086 
L 499.33409 298.994152 
L 500.398302 297.894452 
L 501.284748 296.67003 
L 501.973937 295.33904 
L 502.449369 293.921879 
L 502.697873 292.440867 
L 502.717521 291.037742 
L 502.531016 289.620236 
L 502.136642 288.208612 
L 501.476353 286.709837 
L 500.579181 285.268224 
L 499.454772 283.909483 
L 498.11678 282.658476 
L 496.582707 281.538807 
L 494.873696 280.572423 
L 493.014255 279.779234 
L 491.031941 279.176762 
L 488.956982 278.779816 
L 486.82186 278.60019 
L 484.660856 278.646412 
L 482.509543 278.923521 
L 480.404266 279.432896 
L 478.533412 280.107221 
L 476.761429 280.972627 
L 475.116151 282.021485 
L 473.624349 283.24337 
L 472.311333 284.625127 
L 471.284863 286.018739 
L 470.444775 287.519439 
L 469.805664 289.111568 
L 469.380071 290.777959 
L 469.178272 292.500093 
L 469.208082 294.258288 
L 469.474687 296.031897 
L 469.980494 297.799539 
L 470.72502 299.539341 
L 471.704803 301.229194 
L 472.913361 302.847029 
L 474.341176 304.371099 
L 475.975725 305.780266 
L 477.801559 307.054299 
L 479.80041 308.174158 
L 481.951357 309.122282 
L 484.231021 309.882861 
L 486.613815 310.442096 
L 489.072225 310.788436 
L 491.577124 310.912791 
L 494.098129 310.808717 
L 496.603979 310.472564 
L 499.062932 309.903596 
L 501.230883 309.186158 
L 503.310146 308.281991 
L 505.277593 307.197008 
L 507.110878 305.939154 
L 508.788699 304.518345 
L 510.291041 302.946391 
L 511.599419 301.236889 
L 512.697095 299.405093 
L 513.492587 297.665739 
L 514.09609 295.854035 
L 514.499775 293.983896 
L 514.697378 292.069881 
L 514.684262 290.127072 
L 514.457461 288.170946 
L 514.015714 286.217241 
L 513.359482 284.281833 
L 512.490952 282.380603 
L 511.414021 280.529321 
L 510.134279 278.743521 
L 508.658973 277.038392 
L 506.996957 275.428669 
L 504.944007 273.769208 
L 502.689877 272.263508 
L 500.253155 270.928896 
L 497.654438 269.781373 
L 494.916184 268.835467 
L 492.062539 268.104083 
L 489.119157 267.598362 
L 486.113004 267.327549 
L 483.072145 267.298872 
L 480.329604 267.484351 
L 477.603934 267.872306 
L 474.916962 268.463418 
L 472.290636 269.256824 
L 469.746874 270.250093 
L 467.307402 271.439204 
L 464.993592 272.818539 
L 462.826297 274.380884 
L 460.825683 276.117442 
L 459.011057 278.017859 
L 457.569002 279.835111 
L 456.30042 281.763147 
L 455.21653 283.791761 
L 454.327624 285.909897 
L 453.642977 288.105701 
L 453.170766 290.366569 
L 452.917983 292.679211 
L 452.890361 295.029715 
L 453.092302 297.40362 
L 453.52681 299.785995 
L 454.195433 302.161527 
L 455.098212 304.51461 
L 456.233639 306.829444 
L 457.598621 309.090138 
L 459.188465 311.280815 
L 460.99686 313.385725 
L 463.01588 315.389359 
L 465.236 317.276564 
L 467.646118 319.032661 
L 470.233601 320.643564 
L 472.984332 322.095895 
L 475.88278 323.377101 
L 478.912082 324.475563 
L 482.054139 325.380706 
L 485.289716 326.083098 
L 488.59857 326.574546 
L 491.959576 326.848184 
L 495.350871 326.898548 
L 498.750001 326.721647 
L 502.134086 326.31502 
L 505.479983 325.677783 
L 508.764453 324.81066 
L 511.964344 323.716014 
L 515.05676 322.39785 
L 518.019245 320.86182 
L 520.487645 319.344761 
L 522.825686 317.672336 
L 525.019771 315.851355 
L 527.056939 313.889524 
L 528.924944 311.795416 
L 530.612336 309.57843 
L 532.108531 307.248748 
L 533.403885 304.817285 
L 534.48975 302.295628 
L 535.358537 299.695964 
L 536.003761 297.031008 
L 536.420079 294.313915 
L 536.603324 291.558187 
L 536.550525 288.777572 
L 536.259914 285.985962 
L 535.730925 283.197291 
L 534.964188 280.42543 
L 533.961498 277.684098 
L 532.725793 274.98678 
L 531.261115 272.346658 
L 529.572567 269.776567 
L 527.666271 267.288956 
L 525.549325 264.895877 
L 523.229762 262.608975 
L 520.71651 260.439491 
L 518.019359 258.398263 
L 515.148928 256.49572 
L 512.11664 254.741875 
L 508.934688 253.146296 
L 505.616012 251.718073 
L 502.174266 250.465772 
L 498.623784 249.397381 
L 494.979543 248.520252 
L 491.257116 247.841041 
L 487.472626 247.365658 
L 483.642692 247.099209 
L 479.784371 247.045955 
L 475.915097 247.209274 
L 472.052618 247.591628 
L 468.21493 248.194537 
L 464.420207 249.018555 
L 460.686732 250.063255 
L 457.032827 251.327214 
L 453.476774 252.807997 
L 450.036749 254.502156 
L 446.730737 256.405215 
L 443.576459 258.511675 
L 441.006741 260.474181 
L 438.571969 262.576633 
L 436.282568 264.81377 
L 434.148659 267.179783 
L 432.180012 269.668325 
L 430.386014 272.272515 
L 428.775621 274.984948 
L 427.357323 277.797707 
L 426.139103 280.70238 
L 425.128393 283.690067 
L 424.332036 286.751408 
L 423.756248 289.876596 
L 423.406573 293.055404 
L 423.287851 296.277208 
L 423.404175 299.531018 
L 423.75886 302.805505 
L 424.354403 306.089039 
L 425.192456 309.36972 
L 426.273792 312.635421 
L 427.598278 315.873829 
L 429.164854 319.072485 
L 430.971506 322.218837 
L 433.015251 325.300284 
L 435.292123 328.304227 
L 437.797165 331.218125 
L 440.524421 334.029548 
L 443.466935 336.726231 
L 446.616761 339.296134 
L 449.964967 341.727499 
L 453.501653 344.008905 
L 457.215974 346.129332 
L 461.096163 348.078212 
L 465.129563 349.84549 
L 469.302671 351.421679 
L 473.601175 352.797909 
L 478.010004 353.965982 
L 482.513384 354.918417 
L 487.094896 355.648494 
L 491.737539 356.150297 
L 496.423798 356.418743 
L 501.135712 356.449619 
L 505.85495 356.2396 
L 510.562889 355.786274 
L 515.240688 355.088147 
L 519.869365 354.144653 
L 524.429883 352.956152 
L 528.903219 351.523918 
L 533.270446 349.850129 
L 536.815207 348.272962 
L 540.262518 346.53238 
L 543.601792 344.631005 
L 546.822608 342.571849 
L 549.914743 340.358299 
L 552.868188 337.994109 
L 555.673175 335.483393 
L 558.3202 332.830621 
L 560.80004 330.040626 
L 563.103779 327.118621 
L 565.222829 324.070224 
L 567.148954 320.901506 
L 568.874307 317.619051 
L 570.391458 314.230037 
L 571.693442 310.742345 
L 572.77381 307.16468 
L 573.626696 303.506712 
L 574.246896 299.779227 
L 574.62996 295.994267 
L 574.772298 292.165257 
L 574.671302 288.307079 
L 574.325466 284.436079 
L 573.734519 280.569979 
L 572.899542 276.727658 
L 571.823062 272.928798 
L 570.509116 269.19338 
L 568.96327 265.541053 
L 567.192566 261.990404 
L 565.205414 258.558185 
L 563.011399 255.258588 
L 560.621032 252.102625 
L 558.045438 249.097727 
L 555.29602 246.247596 
L 552.384116 243.552367 
L 549.320673 241.009055 
L 546.115985 238.612269 
L 542.097153 235.919746 
L 537.903004 233.415361 
L 533.546108 231.087326 
L 529.037333 228.926773 
L 524.386282 226.928962 
L 519.601839 225.093754 
L 514.692729 223.425415 
L 509.668026 221.931879 
L 504.537555 220.623706 
L 499.312159 219.512929 
L 494.00384 218.611978 
L 488.625774 217.932802 
L 483.192247 217.486244 
L 477.718538 217.281668 
L 472.220764 217.326803 
L 466.715732 217.627735 
L 461.220797 218.189006 
L 456.662208 218.857897 
L 452.133422 219.710903 
L 447.645008 220.74859 
L 443.207616 221.971005 
L 438.831951 223.377708 
L 434.528747 224.967797 
L 430.308743 226.73992 
L 426.182663 228.692293 
L 422.161193 230.822698 
L 418.254959 233.12849 
L 414.474509 235.6066 
L 410.830287 238.253528 
L 407.332613 241.065346 
L 403.991662 244.037696 
L 400.817434 247.16579 
L 397.819736 250.444404 
L 395.008155 253.867883 
L 392.39203 257.430139 
L 389.980426 261.124652 
L 387.78211 264.94447 
L 385.805516 268.882217 
L 384.058722 272.930092 
L 382.549418 277.079877 
L 381.284877 281.322944 
L 380.271922 285.650262 
L 379.516897 290.052409 
L 379.025635 294.519578 
L 378.803429 299.041599 
L 378.854995 303.607946 
L 379.184447 308.207759 
L 379.650446 311.904203 
L 380.298007 315.609058 
L 381.128322 319.31635 
L 382.142294 323.02 
L 383.340522 326.713832 
L 384.723299 330.391583 
L 386.290596 334.046913 
L 388.042062 337.673414 
L 389.977009 341.264621 
L 392.094412 344.814025 
L 394.392897 348.315083 
L 396.870739 351.761234 
L 399.525856 355.145907 
L 402.355805 358.46254 
L 405.357779 361.704587 
L 408.528602 364.865539 
L 411.864734 367.938937 
L 415.362261 370.918383 
L 419.016906 373.797558 
L 423.799044 377.246051 
L 428.809519 380.516242 
L 434.037578 383.596535 
L 439.47161 386.47569 
L 445.099164 389.142876 
L 450.90697 391.587711 
L 455.673576 393.376824 
L 460.539016 395.012473 
L 465.495446 396.490069 
L 470.534737 397.805263 
L 475.64849 398.953955 
L 480.828048 399.932305 
L 486.064514 400.736736 
L 491.348764 401.36394 
L 496.671465 401.810874 
L 502.023086 402.074762 
L 507.393923 402.153085 
L 512.774105 402.043568 
L 518.153612 401.744162 
L 523.522291 401.253015 
L 528.869862 400.568432 
L 534.185928 399.688828 
L 539.459981 398.612654 
L 544.681401 397.338307 
L 549.839446 395.864013 
L 554.923242 394.18767 
L 559.921755 392.306645 
L 564.823747 390.217508 
L 569.617723 387.915693 
L 574.291847 385.395044 
L 578.833824 382.647247 
L 583.230756 379.661071 
L 586.425057 377.256096 
L 589.523907 374.700455 
L 592.520716 371.983993 
L 595.40837 369.094168 
L 598.179113 366.015546 
L 600.8244 362.729225 
L 603.33472 359.212165 
L 605.69938 355.436449 
L 607.906253 351.368468 
L 609.941476 346.968085 
L 611.19515 343.826706 
L 612.360171 340.500628 
L 613.430663 336.972167 
L 614.400131 333.221958 
L 615.261398 329.228978 
L 616.006529 324.970643 
L 616.626764 320.423006 
L 617.112441 315.561074 
L 617.452933 310.359296 
L 617.636594 304.792241 
L 617.650713 298.835532 
L 617.481506 292.467051 
L 617.114131 285.668482 
L 616.532766 278.427198 
L 615.720738 270.738516 
L 614.660751 262.608293 
L 613.335209 254.055798 
L 611.726672 245.116735 
L 609.818444 235.846216 
L 607.595334 226.321396 
L 605.044551 216.643408 
L 602.156753 206.93815 
L 598.927186 197.355475 
L 597.184298 192.662829 
L 595.356858 188.066333 
L 593.446073 183.589802 
L 591.453641 179.257586 
L 589.381769 175.09428 
L 587.23319 171.124401 
L 585.011176 167.372038 
L 582.719533 163.860485 
L 580.362595 160.611867 
L 577.945206 157.646764 
L 575.472694 154.983844 
L 572.950833 152.639524 
L 570.385793 150.627654 
L 567.784092 148.959254 
L 565.152528 147.642297 
L 562.498109 146.681549 
L 559.827986 146.078485 
L 557.149366 145.831259 
L 554.469443 145.934754 
L 551.795316 146.380694 
L 549.133914 147.157819 
L 546.491925 148.252121 
L 543.875736 149.647122 
L 541.29137 151.324197 
L 538.744437 153.262921 
L 536.240099 155.441436 
L 533.783033 157.836824 
L 531.377413 160.425476 
L 529.026894 163.183451 
L 526.734612 166.086809 
L 522.33473 172.235764 
L 518.192774 178.691834 
L 514.316357 185.290795 
L 510.706608 191.889459 
L 505.781387 201.531717 
L 501.413921 210.606431 
L 495.246823 223.992792 
L 486.934359 242.040152 
L 483.445858 249.044735 
L 481.066039 253.409788 
L 478.967318 256.88858 
L 476.647004 260.262499 
L 474.579578 262.827668 
L 472.699259 264.818609 
L 470.625836 266.697917 
L 468.089448 268.688328 
L 461.317135 273.8292 
L 459.252126 275.753991 
L 457.393495 277.80592 
L 455.926109 279.744117 
L 454.643847 281.787618 
L 453.557416 283.929506 
L 452.676934 286.160086 
L 452.011643 288.467849 
L 451.569725 290.840013 
L 451.358163 293.262832 
L 451.382636 295.721795 
L 451.647431 298.201768 
L 452.155374 300.687111 
L 452.907758 303.161782 
L 453.904295 305.609447 
L 455.143073 308.013581 
L 456.620517 310.357585 
L 458.331374 312.624892 
L 460.268698 314.799093 
L 462.423857 316.86405 
L 464.786546 318.804024 
L 467.344818 320.603794 
L 470.085131 322.248785 
L 472.992403 323.725188 
L 476.050089 325.020081 
L 479.240265 326.121544 
L 482.543733 327.018773 
L 485.940134 327.702181 
L 489.408078 328.163503 
L 492.925285 328.395876 
L 496.468732 328.393927 
L 500.014818 328.153837 
L 503.539531 327.673402 
L 507.018621 326.952077 
L 510.427788 325.99101 
L 513.334439 324.955623 
L 516.153039 323.741853 
L 518.867867 322.35371 
L 521.463576 320.796209 
L 523.925291 319.07535 
L 526.238699 317.198109 
L 528.390139 315.172406 
L 530.366689 313.00708 
L 532.15625 310.711846 
L 533.747626 308.297257 
L 535.130594 305.774651 
L 536.295977 303.156086 
L 537.235699 300.454277 
L 537.942846 297.682507 
L 538.411703 294.854546 
L 538.637792 291.984543 
L 538.617893 289.086924 
L 538.350059 286.176269 
L 537.833609 283.267206 
L 537.06912 280.374285 
L 536.058399 277.511883 
L 534.804451 274.694103 
L 533.311435 271.934699 
L 531.584615 269.247028 
L 529.630311 266.644009 
L 527.45585 264.138117 
L 525.069514 261.741383 
L 522.480505 259.465406 
L 519.6989 257.321369 
L 516.735625 255.320047 
L 513.602424 253.471803 
L 510.311833 251.786572 
L 506.877159 250.273829 
L 503.312445 248.942535 
L 499.632447 247.801085 
L 495.85259 246.857238 
L 491.988929 246.118053 
L 488.058101 245.589826 
L 484.077269 245.278031 
L 480.064064 245.187272 
L 476.036523 245.321235 
L 472.013024 245.682664 
L 468.012215 246.273322 
L 464.052944 247.093973 
L 460.15419 248.144366 
L 456.334986 249.423215 
L 452.614344 250.92819 
L 449.01118 252.655906 
L 445.544232 254.601916 
L 442.694999 256.43952 
L 439.970872 258.429377 
L 437.383074 260.566815 
L 434.942569 262.84659 
L 432.660016 265.262888 
L 430.545735 267.80933 
L 428.609663 270.478977 
L 426.861309 273.264343 
L 425.309718 276.157402 
L 423.963425 279.149601 
L 422.830412 282.231878 
L 421.918067 285.394676 
L 421.233142 288.627964 
L 420.781709 291.921261 
L 420.569123 295.263658 
L 420.599979 298.643849 
L 420.878072 302.05016 
L 421.406365 305.470584 
L 422.186949 308.892815 
L 423.22101 312.304289 
L 424.508801 315.692227 
L 426.049613 319.043678 
L 427.841751 322.345569 
L 429.882513 325.584751 
L 432.168171 328.748057 
L 434.693963 331.822353 
L 437.454082 334.794595 
L 440.441674 337.651889 
L 443.64884 340.381549 
L 447.066645 342.971159 
L 450.68513 345.408632 
L 454.493334 347.682274 
L 458.479315 349.780841 
L 462.630186 351.693605 
L 466.932151 353.410405 
L 471.370548 354.921709 
L 475.929896 356.218669 
L 480.593955 357.293166 
L 485.345781 358.137864 
L 490.167793 358.746248 
L 495.04184 359.112665 
L 499.949279 359.232355 
L 504.871044 359.101479 
L 509.78773 358.717133 
L 514.679674 358.077368 
L 519.527029 357.18119 
L 524.309853 356.028553 
L 528.231845 354.872736 
L 532.083639 353.540434 
L 535.853774 352.033084 
L 539.530874 350.352542 
L 543.103682 348.50106 
L 546.561083 346.481277 
L 549.892128 344.296192 
L 553.086056 341.949149 
L 556.132315 339.443822 
L 559.02058 336.784197 
L 561.74077 333.974568 
L 564.283064 331.019543 
L 566.63792 327.924061 
L 568.796087 324.693426 
L 570.748635 321.333375 
L 572.486976 317.850165 
L 574.002902 314.250698 
L 575.28863 310.542691 
L 576.336871 306.73487 
L 577.140905 302.837211 
L 577.694689 298.8612 
L 577.992987 294.820097 
L 578.031523 290.72918 
L 577.80716 286.605931 
L 577.318094 282.470111 
L 576.56406 278.343687 
L 575.546527 274.250552 
L 574.268862 270.216007 
L 572.736453 266.265989 
L 570.956747 262.426073 
L 568.939197 258.720292 
L 566.695093 255.1699 
L 564.237275 251.792191 
L 561.579741 248.599529 
L 558.737167 245.598747 
L 555.724379 242.790993 
L 552.555831 240.172087 
L 549.245122 237.733359 
L 545.80462 235.46287 
L 542.245204 233.346866 
L 537.829905 230.991861 
L 533.269791 228.817181 
L 528.575228 226.80585 
L 522.939333 224.652375 
L 517.142984 222.703335 
L 511.197038 220.966523 
L 505.990458 219.659306 
L 500.691481 218.534127 
L 495.310303 217.606078 
L 489.858642 216.8901 
L 484.349676 216.399977 
L 478.797898 216.147716 
L 473.218922 216.143267 
L 467.62927 216.394493 
L 462.046183 216.907292 
L 457.41144 217.53747 
L 452.804105 218.353765 
L 448.234831 219.357081 
L 443.714377 220.547724 
L 439.253571 221.925464 
L 434.863285 223.489562 
L 430.554408 225.238809 
L 426.337818 227.17154 
L 422.224369 229.285645 
L 418.224857 231.578575 
L 414.350011 234.047349 
L 410.610459 236.688549 
L 407.016714 239.498322 
L 403.579147 242.47238 
L 400.307964 245.605997 
L 397.213183 248.894006 
L 394.304606 252.330804 
L 391.591794 255.910345 
L 389.084041 259.626145 
L 386.790346 263.471282 
L 384.719383 267.438398 
L 382.879474 271.519706 
L 381.278555 275.706989 
L 379.92415 279.991612 
L 378.82334 284.364528 
L 377.982726 288.816284 
L 377.408404 293.337038 
L 377.105927 297.916566 
L 377.063041 301.615403 
L 377.19961 305.339503 
L 377.517649 309.083149 
L 378.018906 312.840491 
L 378.70485 316.605558 
L 379.576662 320.372263 
L 380.635225 324.134412 
L 381.881115 327.885714 
L 383.314593 331.619788 
L 384.935592 335.330177 
L 386.743716 339.010353 
L 388.738227 342.653735 
L 390.918038 346.253695 
L 393.281711 349.803573 
L 395.827447 353.29669 
L 398.553083 356.726359 
L 401.456086 360.085902 
L 404.533554 363.368663 
L 407.782208 366.568021 
L 411.198394 369.677408 
L 414.778084 372.690321 
L 418.516871 375.60034 
L 422.409977 378.401143 
L 426.452252 381.086519 
L 430.638178 383.650388 
L 434.961875 386.086814 
L 439.417109 388.390021 
L 443.997294 390.554409 
L 448.695506 392.574567 
L 453.504491 394.445288 
L 458.416673 396.161581 
L 463.424168 397.718688 
L 468.5188 399.11209 
L 473.692106 400.33752 
L 478.935359 401.39097 
L 484.239579 402.268699 
L 489.59555 402.967236 
L 494.993833 403.483382 
L 500.424787 403.814205 
L 505.878581 403.957037 
L 511.345213 403.909457 
L 516.814521 403.669276 
L 522.276199 403.234507 
L 527.719808 402.603327 
L 533.134783 401.774024 
L 538.510439 400.744928 
L 543.835974 399.514316 
L 549.100457 398.080293 
L 554.292814 396.440628 
L 559.401807 394.592547 
L 564.415983 392.532452 
L 569.323626 390.255568 
L 574.112659 387.755464 
L 578.770539 385.023447 
L 583.284088 382.047753 
L 586.566136 379.646716 
L 589.752817 377.091169 
L 592.83737 374.370379 
L 595.812491 371.471039 
L 598.670196 368.37671 
L 601.401665 365.067169 
L 603.997055 361.517655 
L 606.445259 357.698012 
L 608.733633 353.571739 
L 610.847662 349.094997 
L 612.151973 345.890399 
L 613.36577 342.489326 
L 614.482822 338.87215 
L 615.49622 335.017274 
L 616.398298 330.901133 
L 617.180548 326.498278 
L 617.833537 321.781568 
L 618.346819 316.722509 
L 618.708853 311.291774 
L 618.906936 305.45996 
L 618.92714 299.198639 
L 618.754293 292.481739 
L 618.371985 285.287326 
L 617.762642 277.599823 
L 616.907666 269.412671 
L 615.787687 260.731429 
L 614.382929 251.577225 
L 612.673733 241.990406 
L 610.641255 232.034143 
L 608.268354 221.797627 
L 605.540667 211.398376 
L 602.447862 200.983108 
L 598.985004 190.72657 
L 597.115085 185.719236 
L 595.153955 180.827794 
L 593.103125 176.079821 
L 590.964678 171.503406 
L 588.741299 167.126789 
L 586.436287 162.977946 
L 584.053564 159.084164 
L 581.597671 155.471586 
L 579.073753 152.16475 
L 576.487532 149.186146 
L 573.845269 146.555777 
L 571.153712 144.290769 
L 568.420035 142.405019 
L 565.65177 140.908915 
L 562.856719 139.809111 
L 560.042876 139.108399 
L 557.218331 138.80565 
L 554.391176 138.895854 
L 551.569417 139.370235 
L 548.760877 140.216451 
L 545.973118 141.418868 
L 543.213357 142.95889 
L 540.488399 144.815344 
L 537.804575 146.964905 
L 535.167697 149.382532 
L 532.583019 152.041928 
L 530.055209 154.915985 
L 527.588337 157.977218 
L 525.185872 161.198168 
L 522.850685 164.551782 
L 518.390749 171.552732 
L 514.220317 178.783131 
L 510.343255 186.068927 
L 506.756713 193.262967 
L 501.902423 203.629759 
L 496.338643 216.249027 
L 481.173263 251.356849 
L 478.384728 256.956794 
L 476.027967 261.159974 
L 473.987537 264.330567 
L 472.17982 266.759917 
L 470.235741 269.006803 
L 467.91899 271.306663 
L 460.998967 277.83338 
L 459.373522 279.807666 
L 457.961055 281.883962 
L 456.893676 283.819222 
L 456.012351 285.834842 
L 455.325394 287.922933 
L 454.840415 290.073278 
L 454.564075 292.274163 
L 454.501932 294.51284 
L 454.658326 296.77581 
L 455.036295 299.049008 
L 455.637506 301.317933 
L 456.462202 303.567768 
L 457.509159 305.783487 
L 458.775649 307.949955 
L 460.257422 310.052035 
L 461.948691 312.074696 
L 463.842135 314.003121 
L 465.928904 315.822816 
L 468.198652 317.519724 
L 470.639565 319.080336 
L 473.238415 320.491802 
L 475.980619 321.742039 
L 478.850319 322.819838 
L 481.830463 323.714966 
L 484.902911 324.418266 
L 488.048542 324.921742 
L 491.247381 325.218646 
L 494.478726 325.303555 
L 497.721294 325.172434 
L 500.95337 324.822692 
L 504.15296 324.253232 
L 507.297956 323.464484 
L 510.366297 322.458425 
L 513.336141 321.2386 
L 516.186029 319.810113 
L 518.895055 318.179621 
L 521.44303 316.35531 
L 523.525192 314.607616 
L 525.456957 312.72631 
L 527.226717 310.719598 
L 528.823622 308.596467 
L 530.237648 306.366638 
L 531.45966 304.040515 
L 532.481472 301.629128 
L 533.295901 299.144067 
L 533.896805 296.59741 
L 534.279128 294.001645 
L 534.438919 291.369579 
L 534.37336 288.714254 
L 534.080769 286.048853 
L 533.560601 283.386602 
L 532.81344 280.740691 
L 531.840983 278.124185 
L 530.646011 275.549953 
L 529.23236 273.030609 
L 527.604887 270.578467 
L 525.769431 268.2055 
L 523.73278 265.923325 
L 521.502628 263.743187 
L 519.087545 261.675947 
L 516.49694 259.732076 
L 513.741034 257.921643 
L 510.830829 256.254293 
L 507.778077 254.739224 
L 504.595253 253.385149 
L 501.295519 252.200254 
L 497.892689 251.192146 
L 494.40119 250.367808 
L 490.83602 249.733543 
L 487.212695 249.294924 
L 483.547201 249.056753 
L 479.855937 249.023015 
L 476.155656 249.196849 
L 472.463402 249.58051 
L 468.796449 250.175352 
L 465.172234 250.981802 
L 461.608287 251.999342 
L 458.122165 253.226499 
L 454.731379 254.660829 
L 451.453323 256.298913 
L 448.305197 258.136348 
L 445.303936 260.167746 
L 442.466128 262.386734 
L 439.80794 264.785956 
L 437.684343 266.979597 
L 435.713754 269.293743 
L 433.905344 271.72207 
L 432.267894 274.257751 
L 430.809755 276.893464 
L 429.538807 279.621404 
L 428.462425 282.433299 
L 427.587438 285.320424 
L 426.920091 288.273624 
L 426.466005 291.283328 
L 426.230147 294.339581 
L 426.216787 297.432063 
L 426.429467 300.550119 
L 426.870967 303.682793 
L 427.543274 306.818856 
L 428.447553 309.946848 
L 429.584118 313.055109 
L 430.952409 316.131828 
L 432.550973 319.165079 
L 434.37744 322.14287 
L 436.428514 325.05319 
L 438.699959 327.884056 
L 441.186595 330.623568 
L 443.882291 333.259957 
L 446.779974 335.781641 
L 449.87163 338.177276 
L 453.14832 340.435818 
L 456.600197 342.546568 
L 460.216527 344.499235 
L 463.985717 346.283985 
L 467.895351 347.891496 
L 471.932225 349.313007 
L 476.082392 350.54037 
L 480.331213 351.566096 
L 484.663404 352.383396 
L 489.063099 352.986226 
L 493.513912 353.369319 
L 497.998996 353.52822 
L 502.50112 353.459312 
L 507.002734 353.159837 
L 511.486043 352.627918 
L 515.933083 351.862566 
L 520.325798 350.863685 
L 524.646112 349.632076 
L 528.876004 348.16943 
L 532.997587 346.478315 
L 536.993175 344.562167 
L 540.845357 342.425266 
L 543.933636 340.479548 
L 546.9008 338.387454 
L 549.737406 336.152756 
L 552.434258 333.779611 
L 554.98243 331.272557 
L 557.373292 328.63652 
L 559.598534 325.876828 
L 561.650192 322.999228 
L 563.520677 320.009916 
L 565.202804 316.915584 
L 566.689828 313.723462 
L 567.975481 310.441392 
L 569.054019 307.07789 
L 569.920277 303.642232 
L 570.569724 300.144523 
L 570.998533 296.595769 
L 571.203655 293.00792 
L 571.182896 289.393885 
L 570.934997 285.767493 
L 570.459713 282.143394 
L 569.757876 278.536884 
L 568.831448 274.963648 
L 567.683548 271.439418 
L 566.318443 267.979568 
L 564.741509 264.598655 
L 562.959136 261.30995 
L 560.978607 258.125 
L 558.807923 255.053265 
L 556.455603 252.101879 
L 553.930469 249.275566 
L 551.24142 246.576739 
L 548.397233 244.005763 
L 545.406381 241.561384 
L 541.635054 238.791902 
L 537.677029 236.196443 
L 533.544183 233.770513 
L 529.247462 231.511208 
L 524.797138 229.418042 
L 520.20314 227.49334 
L 515.475413 225.742186 
L 510.624247 224.172025 
L 505.660549 222.79202 
L 500.59603 221.612315 
L 495.443307 220.643304 
L 490.215926 219.895019 
L 484.928322 219.376661 
L 479.595738 219.096304 
L 474.234118 219.060739 
L 468.859995 219.275435 
L 463.490384 219.744577 
L 458.142676 220.471138 
L 452.834554 221.456966 
L 448.454263 222.47715 
L 444.124324 223.677901 
L 439.855216 225.058712 
L 435.657445 226.61864 
L 431.541516 228.356317 
L 427.517913 230.269953 
L 423.597083 232.357342 
L 419.789409 234.61586 
L 416.105193 237.042468 
L 412.554635 239.633708 
L 409.147806 242.385702 
L 405.894634 245.294154 
L 402.804871 248.354342 
L 399.888076 251.561125 
L 397.153588 254.908938 
L 394.6105 258.391792 
L 392.267635 262.003279 
L 390.133516 265.73657 
L 388.216339 269.584422 
L 386.523949 273.539182 
L 385.063804 277.592788 
L 383.842953 281.736782 
L 382.868001 285.962315 
L 382.145082 290.260159 
L 381.679827 294.620716 
L 381.477335 299.034034 
L 381.542143 303.48982 
L 381.878194 307.977458 
L 382.488809 312.486028 
L 383.376659 317.004326 
L 384.543733 321.520887 
L 385.991317 326.024011 
L 387.71996 330.501791 
L 389.729458 334.942138 
L 392.018826 339.332816 
L 394.586276 343.661474 
L 397.429203 347.915681 
L 400.544166 352.082962 
L 403.926874 356.150839 
L 407.572176 360.106869 
L 411.474055 363.938689 
L 415.625622 367.634054 
L 420.019114 371.180886 
L 424.645902 374.567315 
L 429.496492 377.781725 
L 434.560541 380.812803 
L 439.82687 383.649577 
L 445.28348 386.281466 
L 450.917584 388.698321 
L 456.715623 390.890466 
L 462.663306 392.848737 
L 468.745641 394.564517 
L 474.946975 396.029772 
L 481.251031 397.237069 
L 487.640961 398.179607 
L 492.803069 398.738846 
L 497.999896 399.12182 
L 503.222136 399.325929 
L 508.460314 399.348825 
L 513.704807 399.188402 
L 518.94585 398.842775 
L 524.173554 398.310257 
L 529.377917 397.589322 
L 534.54883 396.67856 
L 539.676085 395.576608 
L 544.749371 394.282076 
L 549.758273 392.793433 
L 554.692258 391.108872 
L 559.540651 389.226131 
L 564.2926 387.142257 
L 568.937025 384.853314 
L 573.462547 382.353993 
L 577.857386 379.637123 
L 582.109233 376.693041 
L 586.205067 373.508789 
L 589.166205 370.9528 
L 592.025425 368.242847 
L 594.775914 365.367541 
L 597.410269 362.312961 
L 599.920367 359.062171 
L 602.297208 355.594688 
L 604.53073 351.88589 
L 606.609595 347.906398 
L 608.520925 343.621453 
L 610.250015 338.990353 
L 611.779993 333.966031 
L 612.679893 330.371828 
L 613.476274 326.561738 
L 614.162043 322.517198 
L 614.729417 318.218716 
L 615.169873 313.646165 
L 615.474101 308.779211 
L 615.63197 303.597893 
L 615.632505 298.083389 
L 615.463889 292.218996 
L 615.113495 285.99135 
L 614.567958 279.391892 
L 613.8133 272.418599 
L 612.835115 265.077937 
L 611.618847 257.387005 
L 610.150142 249.375759 
L 608.415323 241.089184 
L 606.401962 232.589208 
L 604.099571 223.956122 
L 601.500382 215.289193 
L 598.600211 206.706169 
L 595.399328 198.341386 
L 591.903302 190.342256 
L 590.04798 186.528204 
L 588.123717 182.864059 
L 586.132986 179.369343 
L 584.078679 176.063152 
L 581.964111 172.963882 
L 579.793012 170.088954 
L 577.569503 167.454539 
L 575.298083 165.075298 
L 572.983596 162.964129 
L 570.631194 161.13195 
L 568.246294 159.587499 
L 565.834536 158.337183 
L 563.401726 157.384962 
L 560.953781 156.732278 
L 558.496673 156.378035 
L 556.036372 156.318624 
L 553.578781 156.547997 
L 551.129687 157.057787 
L 548.694703 157.837462 
L 546.279216 158.874528 
L 543.888347 160.154746 
L 541.526906 161.662385 
L 539.199361 163.380481 
L 536.909812 165.29111 
L 534.661966 167.375661 
L 532.459131 169.615104 
L 530.304202 171.990246 
L 526.14759 177.071455 
L 522.207182 182.471095 
L 518.491928 188.051441 
L 515.005283 193.689488 
L 510.200045 202.028581 
L 505.88537 209.984978 
L 498.584958 224.07177 
L 491.910485 236.881979 
L 488.062911 243.751412 
L 485.398818 248.082983 
L 483.021062 251.556811 
L 480.868571 254.331575 
L 478.892446 256.550554 
L 476.612701 258.729073 
L 474.493117 260.427919 
L 472.106386 262.044696 
L 469.120306 263.786624 
L 461.732775 267.972077 
L 459.024706 269.821073 
L 456.781803 271.604614 
L 454.70687 273.530692 
L 452.813993 275.599621 
L 451.11744 277.806082 
L 449.631077 280.141286 
L 448.513262 282.281539 
L 447.574602 284.503451 
L 446.822603 286.797798 
L 446.264037 289.154712 
L 445.904876 291.563766 
L 445.750238 294.014039 
L 445.804336 296.494167 
L 446.070437 298.992403 
L 446.550812 301.496667 
L 447.246701 303.994601 
L 448.158283 306.473629 
L 449.28464 308.921014 
L 450.623738 311.323923 
L 452.172407 313.669496 
L 453.926329 315.944908 
L 455.880032 318.137448 
L 458.026891 320.234582 
L 460.359135 322.224035 
L 462.867865 324.093862 
L 465.543074 325.832522 
L 468.373681 327.428954 
L 471.347567 328.872651 
L 474.000739 329.981031 
L 474.000739 329.981031 
" style="fill:none;stroke:#1f77b4;stroke-linecap:square;"/>
   </g>
  </g>
 </g>
 <defs>
  <clipPath id="p18923c721b">
   <rect height="460.08" width="460.08" x="261.72" y="10.8"/>
  </clipPath>
 </defs>
</svg>
